<mxfile host="app.diagrams.net" modified="2021-01-25T10:28:16.540Z" agent="5.0 (Windows NT 10.0; Win64; x64) AppleWebKit/537.36 (KHTML, like Gecko) Chrome/87.0.4280.88 Safari/537.36" etag="TzSooShgBSLTmu2iT_hA" version="14.1.9" type="github">
  <diagram id="8xy49Yy-WbqqwLBvjp84" name="Page-1">
    <mxGraphModel dx="1422" dy="762" grid="1" gridSize="10" guides="1" tooltips="1" connect="1" arrows="1" fold="1" page="1" pageScale="1" pageWidth="827" pageHeight="1169" math="0" shadow="0">
      <root>
        <mxCell id="0" />
        <mxCell id="1" parent="0" />
        <mxCell id="_T2xolhOglt5gRjrLNNQ-2" value="前端" style="rounded=0;whiteSpace=wrap;html=1;" parent="1" vertex="1">
          <mxGeometry x="320" y="150" width="120" height="60" as="geometry" />
        </mxCell>
        <mxCell id="_T2xolhOglt5gRjrLNNQ-3" value="websocket服务" style="rounded=0;whiteSpace=wrap;html=1;" parent="1" vertex="1">
          <mxGeometry x="320" y="290" width="120" height="60" as="geometry" />
        </mxCell>
        <mxCell id="_T2xolhOglt5gRjrLNNQ-4" value="前端" style="rounded=0;whiteSpace=wrap;html=1;" parent="1" vertex="1">
          <mxGeometry x="170" y="150" width="120" height="60" as="geometry" />
        </mxCell>
        <mxCell id="_T2xolhOglt5gRjrLNNQ-5" value="前端" style="rounded=0;whiteSpace=wrap;html=1;" parent="1" vertex="1">
          <mxGeometry x="490" y="150" width="120" height="60" as="geometry" />
        </mxCell>
        <mxCell id="_T2xolhOglt5gRjrLNNQ-6" value="消息队列" style="rounded=0;whiteSpace=wrap;html=1;" parent="1" vertex="1">
          <mxGeometry x="320" y="420" width="120" height="60" as="geometry" />
        </mxCell>
        <mxCell id="tkxx4qr9kLqeTHmlm6AL-14" value="" style="edgeStyle=orthogonalEdgeStyle;rounded=0;orthogonalLoop=1;jettySize=auto;html=1;" parent="1" source="tkxx4qr9kLqeTHmlm6AL-4" target="tkxx4qr9kLqeTHmlm6AL-13" edge="1">
          <mxGeometry relative="1" as="geometry" />
        </mxCell>
        <mxCell id="tkxx4qr9kLqeTHmlm6AL-4" value="&lt;font style=&quot;font-size: 14px&quot;&gt;配置入口&lt;/font&gt;" style="strokeWidth=2;html=1;shape=mxgraph.flowchart.start_2;whiteSpace=wrap;" parent="1" vertex="1">
          <mxGeometry x="110" y="710" width="70" height="70" as="geometry" />
        </mxCell>
        <mxCell id="tkxx4qr9kLqeTHmlm6AL-16" value="" style="edgeStyle=orthogonalEdgeStyle;rounded=0;orthogonalLoop=1;jettySize=auto;html=1;" parent="1" source="tkxx4qr9kLqeTHmlm6AL-13" target="tkxx4qr9kLqeTHmlm6AL-15" edge="1">
          <mxGeometry relative="1" as="geometry" />
        </mxCell>
        <mxCell id="tkxx4qr9kLqeTHmlm6AL-13" value="&lt;font style=&quot;font-size: 14px&quot;&gt;编辑&lt;/font&gt;" style="whiteSpace=wrap;html=1;strokeWidth=2;" parent="1" vertex="1">
          <mxGeometry x="235" y="715" width="120" height="60" as="geometry" />
        </mxCell>
        <mxCell id="tkxx4qr9kLqeTHmlm6AL-18" value="" style="edgeStyle=orthogonalEdgeStyle;rounded=0;orthogonalLoop=1;jettySize=auto;html=1;" parent="1" source="tkxx4qr9kLqeTHmlm6AL-15" target="tkxx4qr9kLqeTHmlm6AL-17" edge="1">
          <mxGeometry relative="1" as="geometry" />
        </mxCell>
        <mxCell id="tkxx4qr9kLqeTHmlm6AL-15" value="&lt;font style=&quot;font-size: 14px&quot;&gt;发布&lt;/font&gt;" style="whiteSpace=wrap;html=1;strokeWidth=2;" parent="1" vertex="1">
          <mxGeometry x="435" y="715" width="120" height="60" as="geometry" />
        </mxCell>
        <mxCell id="tkxx4qr9kLqeTHmlm6AL-17" value="&lt;font style=&quot;font-size: 14px&quot;&gt;监控&lt;/font&gt;" style="whiteSpace=wrap;html=1;strokeWidth=2;" parent="1" vertex="1">
          <mxGeometry x="635" y="715" width="120" height="60" as="geometry" />
        </mxCell>
        <mxCell id="0mgxu4YF21upmARTWM3I-1" value="erlang前端" style="rounded=0;whiteSpace=wrap;html=1;" parent="1" vertex="1">
          <mxGeometry x="80" y="940" width="120" height="60" as="geometry" />
        </mxCell>
        <mxCell id="0mgxu4YF21upmARTWM3I-2" value="" style="rounded=0;whiteSpace=wrap;html=1;" parent="1" vertex="1">
          <mxGeometry x="260" y="909" width="210" height="260" as="geometry" />
        </mxCell>
        <mxCell id="0mgxu4YF21upmARTWM3I-3" value="nats服务器" style="rounded=0;whiteSpace=wrap;html=1;" parent="1" vertex="1">
          <mxGeometry x="305" y="940" width="120" height="60" as="geometry" />
        </mxCell>
        <mxCell id="0mgxu4YF21upmARTWM3I-5" value="websockt" style="endArrow=classic;startArrow=classic;html=1;entryX=0;entryY=0.5;entryDx=0;entryDy=0;exitX=1;exitY=0.5;exitDx=0;exitDy=0;" parent="1" source="0mgxu4YF21upmARTWM3I-1" target="0mgxu4YF21upmARTWM3I-3" edge="1">
          <mxGeometry width="50" height="50" relative="1" as="geometry">
            <mxPoint x="200" y="1050" as="sourcePoint" />
            <mxPoint x="250" y="1000" as="targetPoint" />
          </mxGeometry>
        </mxCell>
        <mxCell id="0mgxu4YF21upmARTWM3I-6" value="nats服务器" style="rounded=0;whiteSpace=wrap;html=1;" parent="1" vertex="1">
          <mxGeometry x="305" y="1040" width="120" height="60" as="geometry" />
        </mxCell>
        <mxCell id="0mgxu4YF21upmARTWM3I-7" value="erlang前端" style="rounded=0;whiteSpace=wrap;html=1;" parent="1" vertex="1">
          <mxGeometry x="80" y="1040" width="120" height="60" as="geometry" />
        </mxCell>
        <mxCell id="0mgxu4YF21upmARTWM3I-8" value="websockt" style="endArrow=classic;startArrow=classic;html=1;entryX=0;entryY=0.5;entryDx=0;entryDy=0;exitX=1;exitY=0.5;exitDx=0;exitDy=0;" parent="1" source="0mgxu4YF21upmARTWM3I-7" target="0mgxu4YF21upmARTWM3I-6" edge="1">
          <mxGeometry width="50" height="50" relative="1" as="geometry">
            <mxPoint x="210" y="980" as="sourcePoint" />
            <mxPoint x="315" y="980" as="targetPoint" />
          </mxGeometry>
        </mxCell>
        <mxCell id="0mgxu4YF21upmARTWM3I-13" value="" style="rounded=0;whiteSpace=wrap;html=1;" parent="1" vertex="1">
          <mxGeometry x="570" y="909" width="210" height="260" as="geometry" />
        </mxCell>
        <mxCell id="0mgxu4YF21upmARTWM3I-14" value="erlang后端" style="rounded=0;whiteSpace=wrap;html=1;" parent="1" vertex="1">
          <mxGeometry x="615" y="940" width="120" height="60" as="geometry" />
        </mxCell>
        <mxCell id="0mgxu4YF21upmARTWM3I-15" value="erlang后端" style="rounded=0;whiteSpace=wrap;html=1;" parent="1" vertex="1">
          <mxGeometry x="615" y="1040" width="120" height="60" as="geometry" />
        </mxCell>
        <mxCell id="0mgxu4YF21upmARTWM3I-16" value="sub-pub" style="endArrow=none;dashed=1;html=1;dashPattern=1 3;strokeWidth=2;entryX=0;entryY=0.5;entryDx=0;entryDy=0;" parent="1" target="0mgxu4YF21upmARTWM3I-13" edge="1">
          <mxGeometry width="50" height="50" relative="1" as="geometry">
            <mxPoint x="480" y="1039" as="sourcePoint" />
            <mxPoint x="530" y="950" as="targetPoint" />
          </mxGeometry>
        </mxCell>
        <mxCell id="0mgxu4YF21upmARTWM3I-20" value="sub" style="endArrow=none;dashed=1;html=1;dashPattern=1 3;strokeWidth=2;exitX=1;exitY=0.5;exitDx=0;exitDy=0;entryX=0.16;entryY=0.55;entryDx=0;entryDy=0;entryPerimeter=0;" parent="1" source="0mgxu4YF21upmARTWM3I-13" target="0mgxu4YF21upmARTWM3I-29" edge="1">
          <mxGeometry width="50" height="50" relative="1" as="geometry">
            <mxPoint x="790" y="970" as="sourcePoint" />
            <mxPoint x="910" y="1039" as="targetPoint" />
          </mxGeometry>
        </mxCell>
        <mxCell id="0mgxu4YF21upmARTWM3I-24" value="网关" style="rounded=0;whiteSpace=wrap;html=1;" parent="1" vertex="1">
          <mxGeometry x="1510" y="950" width="120" height="60" as="geometry" />
        </mxCell>
        <mxCell id="0mgxu4YF21upmARTWM3I-27" value="网关" style="rounded=0;whiteSpace=wrap;html=1;" parent="1" vertex="1">
          <mxGeometry x="1510" y="1050" width="120" height="60" as="geometry" />
        </mxCell>
        <mxCell id="0mgxu4YF21upmARTWM3I-29" value="aws-sqs" style="ellipse;shape=cloud;whiteSpace=wrap;html=1;" parent="1" vertex="1">
          <mxGeometry x="910" y="975" width="220" height="120" as="geometry" />
        </mxCell>
        <mxCell id="q5y677ugaN41BccxbJmW-2" value="aws-sns" style="ellipse;shape=cloud;whiteSpace=wrap;html=1;" vertex="1" parent="1">
          <mxGeometry x="1200" y="940" width="220" height="180" as="geometry" />
        </mxCell>
        <mxCell id="q5y677ugaN41BccxbJmW-7" value="pub" style="endArrow=none;dashed=1;html=1;dashPattern=1 3;strokeWidth=2;entryX=0.16;entryY=0.55;entryDx=0;entryDy=0;exitX=0.875;exitY=0.5;exitDx=0;exitDy=0;exitPerimeter=0;entryPerimeter=0;" edge="1" parent="1" source="0mgxu4YF21upmARTWM3I-29" target="q5y677ugaN41BccxbJmW-2">
          <mxGeometry width="50" height="50" relative="1" as="geometry">
            <mxPoint x="1402.5" y="1040" as="sourcePoint" />
            <mxPoint x="1520" y="990" as="targetPoint" />
          </mxGeometry>
        </mxCell>
        <mxCell id="q5y677ugaN41BccxbJmW-13" value="数据上报" style="endArrow=classic;html=1;exitX=0;exitY=0.5;exitDx=0;exitDy=0;entryX=0.875;entryY=0.5;entryDx=0;entryDy=0;entryPerimeter=0;" edge="1" parent="1" source="0mgxu4YF21upmARTWM3I-24" target="q5y677ugaN41BccxbJmW-2">
          <mxGeometry width="50" height="50" relative="1" as="geometry">
            <mxPoint x="1480" y="909" as="sourcePoint" />
            <mxPoint x="1220" y="909" as="targetPoint" />
          </mxGeometry>
        </mxCell>
        <mxCell id="q5y677ugaN41BccxbJmW-22" value="数据上报" style="endArrow=classic;html=1;exitX=0;exitY=0.5;exitDx=0;exitDy=0;entryX=0.875;entryY=0.5;entryDx=0;entryDy=0;entryPerimeter=0;" edge="1" parent="1" source="0mgxu4YF21upmARTWM3I-27" target="q5y677ugaN41BccxbJmW-2">
          <mxGeometry width="50" height="50" relative="1" as="geometry">
            <mxPoint x="1410" y="1320" as="sourcePoint" />
            <mxPoint x="1390" y="1030" as="targetPoint" />
          </mxGeometry>
        </mxCell>
      </root>
    </mxGraphModel>
  </diagram>
</mxfile>
